<svg width="13" height="220" viewBox="0 0 13 220" fill="none" xmlns="http://www.w3.org/2000/svg">
<path id="Vector" fill-rule="evenodd" clip-rule="evenodd" d="M7.95597 145.483L5.41928 145.483L5.41928 134.805C6.80293 134.805 8.07128 134.805 9.33961 134.92C11.1845 135.035 12.6834 136.527 12.6834 138.365L12.6834 143.991L12.6834 149.617C12.6834 151.454 11.1845 152.946 9.33961 153.061L9.12495 153.073C7.13618 153.184 5.34746 153.283 3.34381 153.061C1.49895 152.946 -2.99123e-06 151.569 -3.07655e-06 149.617L-3.32247e-06 143.991L-3.5684e-06 138.365C-3.6487e-06 136.527 1.49895 135.035 3.34381 134.92L4.15094 134.805L4.15094 138.25L4.03563 138.25C3.45912 138.25 2.88259 138.824 2.88259 139.398L2.88259 144.105L2.88259 148.698C2.88259 149.387 3.34381 149.846 4.03563 149.846L8.64779 149.846C9.22431 149.846 9.80082 149.272 9.80082 148.698L9.80082 144.105L9.80082 139.398C9.80082 138.709 9.33961 138.25 8.64779 138.25L7.95597 138.25L7.95597 145.483ZM7.61006 36.0623L9.57022 36.0623L9.57022 23.2025L12.4528 23.2025L12.4528 39.5063L0.115295 39.5063L0.115295 23.2025L2.9979 23.2025L2.9979 36.0623L4.95806 36.0623L4.95806 24.9245L7.61006 24.9245L7.61006 36.0623ZM9.57022 52.2505L0.115296 58.7951L0.115296 63.1587L12.4528 54.3176L12.4528 52.2505L12.4528 50.0695L0.115295 41.3439L0.115296 45.5919L9.57022 52.2505ZM0.115301 170.284L8.41719 160.065L0.115301 160.065L0.1153 156.391L12.4528 156.391L12.4528 160.869L3.34381 172.236L12.4528 172.236L12.4528 175.795L0.115301 175.795L0.115301 170.284ZM2.9979 115.056L0.115299 115.056L0.115299 131.361L12.4528 131.361L12.4528 115.056L9.57022 115.056L9.57022 127.916L7.61006 127.916L7.61006 116.779L4.95806 116.779L4.95806 127.916L2.9979 127.916L2.9979 115.056ZM12.4528 199.333L0.115302 190.607L0.115302 186.358L12.4528 177.517L12.4528 181.88L9.91613 183.603L9.91613 193.247L12.4528 194.97L12.4528 199.333ZM7.37945 191.525L7.37945 188.54L7.37945 185.555L2.9979 188.54L7.37945 191.525ZM4.15094 201.629C1.96016 201.629 0.115303 203.466 0.115303 205.648L0.115303 220L12.4528 220L12.4528 216.441L8.18657 216.441L8.18657 208.977L12.4528 205.303L12.4528 200.596L7.95597 204.5C7.49475 202.892 5.99579 201.629 4.15094 201.629ZM5.30398 206.451L5.30398 216.441L2.99791 216.441L2.9979 206.566L2.9979 206.451C2.9979 205.877 3.45912 205.418 4.15094 205.418C4.72747 205.418 5.30398 205.877 5.30398 206.451ZM0.115298 89.6816C0.115297 87.5001 1.96016 85.663 4.15094 85.663C5.99579 85.663 7.49475 86.926 7.95597 88.5335L12.4528 84.6297L12.4528 89.3372L8.18657 93.0114L8.18657 100.475L12.4528 100.475L12.4528 104.034L0.115298 104.034L0.115298 89.6816ZM5.30397 100.475L5.30397 90.4853C5.30397 89.9112 4.72746 89.4521 4.15094 89.4521C3.45912 89.4521 2.9979 89.9112 2.9979 90.4853L2.9979 90.6002L2.9979 100.475L5.30397 100.475ZM7.95596 4.25717C7.49475 2.64911 5.88049 1.38609 4.15093 1.38609C1.96015 1.38609 0.115294 3.22363 0.115294 5.40465L0.115294 19.7569L12.4528 19.7569L12.4528 16.1973L8.18656 16.1973L8.18656 8.73473L12.4528 5.0612L12.4528 0.352569L7.95596 4.25717ZM5.30397 6.20869L5.30397 16.1973L2.9979 16.1973L2.9979 6.32423L2.9979 6.20869C2.9979 5.63416 3.45911 5.17517 4.15093 5.17517C4.72746 5.17517 5.30397 5.63416 5.30397 6.20869ZM-6.66002e-06 67.6366C-6.74534e-06 65.6846 1.49894 64.3068 3.34381 64.1921L5.07337 64.0772L6.34171 64.0772L8.07127 64.0772L9.3396 64.1921C11.1845 64.3068 12.6834 65.7995 12.6834 67.6366L12.6834 73.2626L12.6834 78.8887C12.6834 80.8406 11.1845 82.2185 9.3396 82.3333L7.61006 82.448L6.34171 82.448L4.61215 82.448L3.34381 82.3333C1.49895 82.2185 -6.08787e-06 80.7258 -6.16817e-06 78.8887L-6.4141e-06 73.2626L-6.66002e-06 67.6366ZM9.80082 68.67C9.80082 67.981 9.3396 67.5217 8.64778 67.5217L4.03563 67.5217C3.45912 67.5217 2.88259 68.0957 2.88259 68.67L2.88259 73.3775L2.88259 77.9701C2.88259 78.6591 3.34381 79.1184 4.03563 79.1184L8.64778 79.1184C9.22431 79.1184 9.80082 78.5442 9.80082 77.9701L9.80082 73.3775L9.80082 68.67Z" fill="white" fill-opacity="0.35"/>
</svg>
